<svg xmlns="http://www.w3.org/2000/svg" viewBox="0 0 1381 393"><path fill="#032F70" fill-rule="evenodd" d="M 234,149 245,160 253,174 245,160 Z M 683,139 684,282 691,302 696,310 707,321 722,330 733,333 749,335 769,334 783,330 795,324 812,310 814,312 814,331 817,332 878,331 877,139 813,139 813,252 806,268 795,277 781,281 768,280 759,275 751,266 747,255 746,139 Z M 1147,155 1123,144 1105,139 1061,135 1042,137 1022,142 1010,147 993,159 983,171 976,191 977,215 986,235 996,244 1010,252 1027,258 1075,269 1084,277 1084,282 1075,291 1065,293 1047,293 1023,287 1008,280 994,270 985,283 969,313 987,324 1010,333 1028,337 1053,339 1078,338 1093,335 1108,330 1128,318 1141,303 1147,289 1149,278 1147,258 1139,242 1121,227 1105,220 1048,206 1043,202 1041,194 1046,187 1054,183 1081,182 1108,189 1122,195 1125,198 1148,157 Z M 1202,151 1180,171 1170,186 1162,207 1159,223 1159,251 1163,270 1170,287 1177,298 1192,314 1206,324 1235,336 1258,340 1289,340 1311,336 1329,330 1347,320 1363,306 1327,273 1313,283 1299,289 1282,292 1264,291 1244,283 1233,272 1227,259 1229,254 1379,254 1379,224 1372,195 1362,176 1345,157 1329,146 1318,141 1285,133 1255,133 1242,135 1219,142 Z M 1227,212 1233,199 1242,190 1258,182 1273,181 1285,183 1296,189 1308,202 1312,216 1308,218 1228,217 Z M 626,78 609,72 593,69 456,69 456,331 519,331 519,257 521,254 570,255 601,251 620,244 636,235 646,227 658,213 667,197 673,178 675,164 673,135 667,117 657,101 641,86 Z M 519,124 521,122 575,122 586,125 595,130 604,141 608,157 607,168 600,182 591,191 573,198 521,199 519,196 Z M 895,60 894,329 898,332 955,332 957,331 957,60 Z M 180,2 159,5 124,16 95,31 67,52 50,69 30,96 18,118 6,150 0,183 0,218 5,248 11,267 22,291 38,316 67,346 90,362 92,362 92,199 96,173 103,156 113,140 131,122 151,111 167,106 177,105 181,102 Z M 240,1 208,1 208,84 239,90 256,98 272,109 289,126 300,143 308,163 312,182 312,207 304,236 298,247 284,266 267,281 250,291 230,298 207,302 183,303 184,392 225,392 266,384 301,370 337,347 368,316 387,287 400,258 409,222 410,175 405,146 391,107 369,73 339,43 310,24 281,11 Z"/><path fill="#078CFF" fill-rule="evenodd" d="M 182,135 157,143 139,158 132,168 126,182 124,192 124,211 127,224 134,238 149,254 156,259 173,266 198,268 208,266 225,259 237,250 247,238 256,218 258,204 257,189 250,169 244,160 233,149 224,143 209,137 199,135 Z"/></svg>